# xmcd
#
# Track frame offsets:
#	182
#	21125
#	35475
#	49545
#	65620
#	76960
#	89457
#	107070
#	119345
#	136822
#
# Disc length: 1986 seconds
#
# Revision: 2
# Processed by: cddbd v1.5.2PL0 Copyright (c) Steve Scherf et al.
# Submitted via: EasyCDDAExtractor 8.2.3.1
#
DISCID=7d07c00a
DTITLE=Shawn Camp
DYEAR=1993
DGENRE=Country
TTITLE0=Fallin' Never Felt So Good
TTITLE1=Confessin' My Love
TTITLE2=K-I-S-S-I-N-G
TTITLE3=I'm Not Just Passin' Through
TTITLE4=Man, What A Woman
TTITLE5=Speakin' Of The Angel
TTITLE6=Bound To Cry
TTITLE7=One Of Them Days
TTITLE8=Turn Loose Of My Pride
TTITLE9=A Little Bit Of Love
EXTD=
EXTT0=
EXTT1=
EXTT2=
EXTT3=
EXTT4=
EXTT5=
EXTT6=
EXTT7=
EXTT8=
EXTT9=
PLAYORDER=
